<svg width="688" height="788" viewBox="0 0 688 788" fill="none" xmlns="http://www.w3.org/2000/svg">
<mask id="path-1-outside-1_247_337" maskUnits="userSpaceOnUse" x="73.4043" y="0.4375" width="540" height="143" fill="black">
<rect fill="white" x="73.4043" y="0.4375" width="540" height="143"/>
<path fill-rule="evenodd" clip-rule="evenodd" d="M610.404 141.438C551.664 57.1527 454.022 2 343.499 2C232.975 2 135.333 57.1527 76.5935 141.438H99.0909C155.151 67.754 243.77 20.1875 343.499 20.1875C443.228 20.1875 531.847 67.754 587.907 141.437L610.404 141.438Z"/>
</mask>
<path fill-rule="evenodd" clip-rule="evenodd" d="M610.404 141.438C551.664 57.1527 454.022 2 343.499 2C232.975 2 135.333 57.1527 76.5935 141.438H99.0909C155.151 67.754 243.77 20.1875 343.499 20.1875C443.228 20.1875 531.847 67.754 587.907 141.437L610.404 141.438Z" fill="#EF1717"/>
<path d="M610.404 141.438V142.953H613.308L611.648 140.571L610.404 141.438ZM76.5935 141.438L75.35 140.571L73.6898 142.953H76.5935V141.438ZM99.0909 141.438V142.953H99.8422L100.297 142.355L99.0909 141.438ZM587.907 141.437L586.701 142.355L587.156 142.953H587.907V141.437ZM343.499 3.51562C453.506 3.51562 550.692 58.4085 609.161 142.304L611.648 140.571C552.637 55.8969 454.539 0.484375 343.499 0.484375V3.51562ZM77.8369 142.304C136.306 58.4085 233.492 3.51563 343.499 3.51562V0.484375C232.459 0.484375 134.361 55.8969 75.35 140.571L77.8369 142.304ZM76.5935 142.953H99.0909V139.922H76.5935V142.953ZM343.499 18.6719C243.277 18.6719 154.219 66.4758 97.8847 140.52L100.297 142.355C156.083 69.0323 244.263 21.7031 343.499 21.7031V18.6719ZM589.113 140.52C532.779 66.4758 443.721 18.6719 343.499 18.6719V21.7031C442.734 21.7031 530.915 69.0323 586.701 142.355L589.113 140.52ZM587.907 142.953L610.404 142.953V139.922L587.907 139.922V142.953Z" fill="#EF1717" mask="url(#path-1-outside-1_247_337)"/>
<path d="M158.391 228.207L275.022 528.864C279.802 540.973 285.219 549.099 291.273 553.242C297.328 557.066 302.904 559.137 308.003 559.456V569.016C301.63 568.378 293.823 568.06 284.581 568.06C275.34 567.741 266.099 567.582 256.858 567.582C244.43 567.582 232.799 567.741 221.964 568.06C211.13 568.06 202.367 568.378 195.675 569.016V559.456C211.927 558.818 222.283 556.11 226.744 551.33C231.206 546.231 230.25 535.556 223.876 519.304L134.97 281.742L142.618 275.528L59.4471 491.581C54.3485 504.327 51.3212 515.162 50.3652 524.084C49.4093 532.688 50.2059 539.539 52.7552 544.638C55.6232 549.737 60.2438 553.401 66.617 555.632C73.3089 557.862 81.5941 559.137 91.4726 559.456V569.016C82.5501 568.378 73.1495 568.06 63.271 568.06C53.7112 567.741 44.7887 567.582 36.5035 567.582C28.5369 567.582 21.6857 567.741 15.9498 568.06C10.5326 568.06 5.43398 568.378 0.654054 569.016V559.456C7.02728 557.862 13.5598 554.198 20.2517 548.462C26.9436 542.407 32.9982 532.21 38.4154 517.87L150.744 228.207C152.018 228.207 153.293 228.207 154.568 228.207C155.842 228.207 157.117 228.207 158.391 228.207ZM216.707 431.354V440.914H74.2649L79.0448 431.354H216.707ZM392.298 230.597C398.99 230.916 407.753 231.234 418.587 231.553C429.422 231.872 440.097 232.031 450.613 232.031C465.59 232.031 479.93 231.872 493.632 231.553C507.335 231.234 517.054 231.075 522.79 231.075C548.601 231.075 569.952 234.74 586.841 242.069C604.048 249.398 616.795 259.436 625.08 272.182C633.684 284.61 637.986 298.631 637.986 314.246C637.986 323.806 636.074 334.003 632.25 344.837C628.426 355.672 621.734 365.869 612.174 375.429C602.933 384.989 590.187 392.955 573.935 399.328C557.683 405.383 537.129 408.41 512.274 408.41H466.387V398.85H507.494C530.119 398.85 547.327 395.345 559.117 388.335C571.226 381.005 579.352 371.445 583.495 359.655C587.956 347.546 590.187 334.162 590.187 319.504C590.187 294.329 584.132 274.891 572.023 261.189C560.232 247.168 539.838 240.157 510.84 240.157C496.181 240.157 486.622 242.866 482.16 248.283C477.699 253.7 475.468 264.694 475.468 281.264V518.348C475.468 529.82 476.424 538.424 478.336 544.16C480.248 549.896 483.913 553.72 489.33 555.632C495.066 557.544 503.351 558.818 514.186 559.456V569.016C506.857 568.378 497.615 568.06 486.462 568.06C475.628 567.741 464.634 567.582 453.481 567.582C441.053 567.582 429.422 567.741 418.587 568.06C407.753 568.06 398.99 568.378 392.298 569.016V559.456C403.132 558.818 411.258 557.544 416.675 555.632C422.411 553.72 426.235 549.896 428.147 544.16C430.059 538.424 431.015 529.82 431.015 518.348V281.264C431.015 269.474 430.059 260.87 428.147 255.453C426.235 249.717 422.411 245.893 416.675 243.981C411.258 241.75 403.132 240.476 392.298 240.157V230.597ZM468.298 400.284C485.506 400.922 499.049 401.718 508.928 402.674C518.806 403.312 526.773 403.949 532.827 404.586C539.201 405.224 545.255 406.02 550.991 406.976C572.341 410.482 587.637 417.014 596.878 426.574C606.438 435.815 613.449 450.314 617.91 470.071L629.86 518.826C633.046 532.848 636.233 543.045 639.42 549.418C642.925 555.473 648.183 558.34 655.193 558.022C660.611 557.703 665.072 555.951 668.577 552.764C672.401 549.577 676.384 545.275 680.527 539.858L687.697 545.116C681.005 554.995 673.994 562.642 666.665 568.06C659.655 573.158 649.617 575.708 636.552 575.708C624.761 575.708 614.405 572.202 605.482 565.192C596.56 558.181 589.868 544.479 585.407 524.084L574.891 476.285C572.023 462.583 568.677 450.792 564.853 440.914C561.348 430.717 556.249 422.75 549.557 417.014C543.184 411.278 533.624 408.41 520.878 408.41H469.254L468.298 400.284Z" fill="#EF1717"/>
<mask id="path-4-outside-2_247_337" maskUnits="userSpaceOnUse" x="73.5957" y="644.141" width="540" height="143" fill="black">
<rect fill="white" x="73.5957" y="644.141" width="540" height="143"/>
<path fill-rule="evenodd" clip-rule="evenodd" d="M76.5957 646.141C135.336 730.425 232.978 785.578 343.501 785.578C454.025 785.578 551.667 730.425 610.407 646.141L587.909 646.141C531.849 719.824 443.23 767.391 343.501 767.391C243.772 767.391 155.153 719.824 99.0931 646.141L76.5957 646.141Z"/>
</mask>
<path fill-rule="evenodd" clip-rule="evenodd" d="M76.5957 646.141C135.336 730.425 232.978 785.578 343.501 785.578C454.025 785.578 551.667 730.425 610.407 646.141L587.909 646.141C531.849 719.824 443.23 767.391 343.501 767.391C243.772 767.391 155.153 719.824 99.0931 646.141L76.5957 646.141Z" fill="#EF1717"/>
<path d="M76.5957 646.141L76.5957 644.625L73.692 644.625L75.3523 647.007L76.5957 646.141ZM610.407 646.141L611.65 647.007L613.31 644.625L610.407 644.625L610.407 646.141ZM587.909 646.141L587.909 644.625L587.158 644.625L586.703 645.223L587.909 646.141ZM99.0931 646.141L100.299 645.223L99.8444 644.625L99.0931 644.625L99.0931 646.141ZM343.501 784.063C233.494 784.063 136.308 729.17 77.8391 645.274L75.3523 647.007C134.363 731.681 232.461 787.094 343.501 787.094L343.501 784.063ZM609.163 645.274C550.695 729.17 453.508 784.063 343.501 784.063L343.501 787.094C454.541 787.094 552.639 731.681 611.65 647.007L609.163 645.274ZM610.407 644.625L587.909 644.625L587.909 647.656L610.407 647.656L610.407 644.625ZM343.501 768.906C443.724 768.906 532.781 721.102 589.115 647.058L586.703 645.223C530.917 718.546 442.737 765.875 343.501 765.875L343.501 768.906ZM97.8869 647.058C154.221 721.102 243.279 768.906 343.501 768.906L343.501 765.875C244.266 765.875 156.085 718.546 100.299 645.223L97.8869 647.058ZM99.0931 644.625L76.5957 644.625L76.5957 647.656L99.0931 647.656L99.0931 644.625Z" fill="#EF1717" mask="url(#path-4-outside-2_247_337)"/>
</svg>
